<?xml version="1.0" standalone="no"?><!DOCTYPE svg PUBLIC "-//W3C//DTD SVG 1.1//EN" "http://www.w3.org/Graphics/SVG/1.1/DTD/svg11.dtd"><svg t="1570781208935" class="icon" viewBox="0 0 1024 1024" version="1.1" xmlns="http://www.w3.org/2000/svg" p-id="1745" width="48" height="48" xmlns:xlink="http://www.w3.org/1999/xlink"><defs><style type="text/css"></style></defs><path d="M264.968 962.005c-80.2 0-145.2-65-145.2-145.2v-580.8c0-80.2 65-145.2 145.2-145.2h410c16 0 29.1 13 29.1 29.1s-13 29.1-29.1 29.1h-410c-48.1 0-87.1 39-87.1 87.1v580.7c0 48.1 39 87.1 87.1 87.1h464.6c48.1 0 87.1-39 87.1-87.1v-537.2c0-16 13-29 29-29s29 13 29 29v537.2c0 80.2-65 145.2-145.2 145.2h-464.5z m377.5-203.3h-290.4c-16 0-29.1-13-29.1-29.1s13-29.1 29.1-29.1h290.4c16 0 29.1 13 29.1 29.1s-13.1 29.1-29.1 29.1z m0-174.4h-290.4c-16 0-29-13-29-29s13-29 29-29h290.4c16 0 29 13 29 29s-13 29-29 29z m-116.2-174.3h-174.2c-16 0-29-13-29-29s13-29 29-29h174.4c16 0 29 13 29 29s-13 29-29 29h-0.2z m109.2-51.2c-16-0.2-28.9-13.4-28.6-29.4 0.1-7.5 3.1-14.7 8.3-20l239.2-238.9c11.4-11.4 29.8-11.4 41.2 0s11.4 29.8 0 41.2l-239.8 240.5c-5.3 4.5-12 7-18.9 7l-1.4-0.4z" fill="#999999" p-id="1746"></path></svg>