<?xml version="1.0" standalone="no"?><!DOCTYPE svg PUBLIC "-//W3C//DTD SVG 1.1//EN" "http://www.w3.org/Graphics/SVG/1.1/DTD/svg11.dtd"><svg t="1571365239030" class="icon" viewBox="0 0 1024 1024" version="1.1" xmlns="http://www.w3.org/2000/svg" p-id="1838" width="64" height="64" xmlns:xlink="http://www.w3.org/1999/xlink"><defs><style type="text/css"></style></defs><path d="M364.688691 837.632c-2.048-17.408 5.12-33.792 17.408-46.08 12.288-12.288 27.648-20.48 44.032-20.48h4.096c33.792 0 63.488 27.648 64.512 63.488 2.048 35.84-27.648 64.512-63.488 66.56-35.84 1.024-66.56-27.648-66.56-63.488z m621.568-215.04L533.648691 773.12c-22.528-33.792-59.392-58.368-104.448-58.368h-12.288L238.736691 177.152c-2.048-7.168-7.168-13.312-13.312-17.408L41.104691 69.632C26.768691 62.464 10.384691 67.584 3.216691 80.896c-7.168 13.312-2.048 30.72 12.288 37.888l172.032 84.992 176.128 529.408c-8.192 7.168-17.408 12.288-23.552 20.48C317.584691 778.24 307.344691 808.96 307.344691 840.704c3.072 64.512 56.32 115.712 120.832 115.712h5.12c68.608-3.072 119.808-59.392 115.712-125.952v-5.12L1003.664691 675.84c15.36-5.12 22.528-22.528 18.432-35.84-5.12-14.336-20.48-22.528-35.84-17.408z m0 0" fill="#666666" p-id="1839"></path><path d="M972.944691 525.312L829.584691 93.184c-2.048-7.168-7.168-13.312-13.312-17.408-7.168-3.072-13.312-3.072-22.528-2.048l-218.112 73.728-218.112 71.68c-15.36 5.12-22.528 20.48-18.432 35.84l143.36 432.128c3.072 12.288 15.36 18.432 27.648 18.432 3.072 0 7.168 0 8.192-2.048l437.248-145.408c7.168-2.048 13.312-7.168 17.408-13.312 2.048-4.096 3.072-13.312 0-19.456zM525.456691 643.072L399.504691 265.216l165.888-54.272 33.792 104.448c3.072 12.288 15.36 18.432 27.648 18.432 3.072 0 7.168 0 8.192-2.048 15.36-5.12 22.528-20.48 18.432-35.84l-33.792-104.448 165.888-53.248L911.504691 516.096c-2.048 2.048-386.048 126.976-386.048 126.976z m0 0" fill="#ff8c49" p-id="1840"></path></svg>