<?xml version="1.0" standalone="no"?><!DOCTYPE svg PUBLIC "-//W3C//DTD SVG 1.1//EN" "http://www.w3.org/Graphics/SVG/1.1/DTD/svg11.dtd"><svg t="1578903400765" class="icon" viewBox="0 0 1024 1024" version="1.1" xmlns="http://www.w3.org/2000/svg" p-id="2560" xmlns:xlink="http://www.w3.org/1999/xlink" width="20" height="20"><defs><style type="text/css"></style></defs><path d="M510.669731 60.88538c-248.350954 0-449.630858 201.279904-449.630858 449.630859S262.318777 960.147097 510.669731 960.147097s449.630858-201.279904 449.630859-449.630858c0-248.248626-201.382232-449.630858-449.630859-449.630859z m200.563606 347.097832L475.5711 643.747777c-13.20036 13.20036-34.484661 13.20036-47.68502 0L310.003797 525.865494c-13.20036-13.20036-13.20036-34.484661 0-47.68502 13.20036-13.20036 34.484661-13.20036 47.685021 0l94.039772 94.039772 211.819726-211.922055c13.20036-13.20036 34.484661-13.20036 47.685021 0 13.20036 13.20036 13.20036 34.484661 0 47.685021z" fill="#4385f5" p-id="2561"></path></svg>