<?xml version="1.0" standalone="no"?><!DOCTYPE svg PUBLIC "-//W3C//DTD SVG 1.1//EN" "http://www.w3.org/Graphics/SVG/1.1/DTD/svg11.dtd"><svg t="1579509282637" class="icon" viewBox="0 0 1024 1024" version="1.1" xmlns="http://www.w3.org/2000/svg" p-id="4966" xmlns:xlink="http://www.w3.org/1999/xlink" width="200" height="200"><defs><style type="text/css"></style></defs><path d="M807.3125 427.625v421.5796875c0 23.45625-17.1703125 34.7203125-38.5171875 25.059375l-127.575-57.7125L532.6296875 891.6875h-20.08125l-108.590625-75.1359375-148.5 59.56875c-21.3890625 8.60625-38.7703125-3.375-38.7703125-26.915625V427.625H132.3125a42.1875 42.1875 0 0 1-42.1875-42.1875V216.6875a42.1875 42.1875 0 0 1 42.1875-42.1875h759.375a42.1875 42.1875 0 0 1 42.1875 42.1875v168.75a42.1875 42.1875 0 0 1-42.1875 42.1875h-84.375z m0-42.1875a42.1875 42.1875 0 0 0 42.1875-42.1875V301.0625a42.1875 42.1875 0 0 0-42.1875-42.1875H216.6875a42.1875 42.1875 0 0 0-42.1875 42.1875v42.1875a42.1875 42.1875 0 0 0 42.1875 42.1875v-41.8921875C216.6875 320.046875 235.671875 301.0625 259.1703125 301.0625h505.659375C788.328125 301.0625 807.3125 320.046875 807.3125 343.5453125V385.4375zM343.25 596.375v42.1875h337.5v-42.1875H343.25z m0-126.5625v42.1875h337.5V469.8125H343.25z" fill="#4385f5" p-id="4967"></path></svg>