<?xml version="1.0" standalone="no"?><!DOCTYPE svg PUBLIC "-//W3C//DTD SVG 1.1//EN" "http://www.w3.org/Graphics/SVG/1.1/DTD/svg11.dtd"><svg class="icon" width="60px" height="60.00px" viewBox="0 0 1024 1024" version="1.1" xmlns="http://www.w3.org/2000/svg"><path fill="#4385f5" d="M914.464 800.672v0.064a87.392 87.392 0 0 0-31.2-43.264 197.824 197.824 0 0 0-50.432-27.328 703.904 703.904 0 0 0-58.88-18.816 570.336 570.336 0 0 1-56.128-18.304c-19.264-7.424-34.176-15.936-44.992-25.568-10.624-9.696-18.432-19.744-23.328-30.496a94.528 94.528 0 0 1-8.256-31.68c-0.736-10.432 0-20.736 2.24-31.136 2.88-16.992 8.512-28.992 16.64-36a1251.2 1251.2 0 0 1 31.072-26.176c6.496-5.184 11.616-11.84 15.008-19.424 4.128-8.608 8.064-17.248 11.744-26.048 3.936-10.528 7.264-21.312 9.952-32.256 4.864-2.656 9.056-6.432 12.256-11.104a63.68 63.68 0 0 0 10.016-19.424c2.88-8.544 5.12-20.192 6.56-34.976a158.336 158.336 0 0 0 0-46.656 59.296 59.296 0 0 0-3.36-13.312c-0.64-26.656-2.88-53.696-6.624-81.056a521.44 521.44 0 0 0-17.76-74.944 230.016 230.016 0 0 0-37.76-72.8 144 144 0 0 0-20.512-22.24 54.848 54.848 0 0 0-18.944-10.496 69.024 69.024 0 0 0-19.424-2.816h-21.12c-5.12-5.12-10.112-10.336-14.944-15.552-4.8-5.12-10.56-9.6-17.184-13.28a109.248 109.248 0 0 0-26.176-9.472A296.224 296.224 0 0 0 511.264 0c-16.384 0.064-32.672 1.376-48.864 3.872a234.56 234.56 0 0 0-50.496 13.92 198.08 198.08 0 0 0-48.32 28.384A225.152 225.152 0 0 0 320.32 92.16 196.064 196.064 0 0 0 288.064 160a583.264 583.264 0 0 0-14.368 69.888c-3.008 25.952-4.48 51.872-4.48 77.696a61.12 61.12 0 0 0-5.568 21.184 72.704 72.704 0 0 0-0.576 23.84c1.44 10.752 3.872 21.344 7.2 31.68 4.064 14.752 10.112 28.928 17.888 42.144 2.112 2.72 4.32 5.312 6.624 7.776 2.624 10.944 6.016 21.728 9.952 32.256 3.68 8.8 7.616 17.472 11.744 26.048 3.328 7.584 8.448 14.24 14.88 19.424 10.432 8.992 20.64 18.304 30.624 27.808 9.248 8.864 14.624 21.44 16.128 37.696 0.736 11.136 1.056 21.12 1.056 30.016 0.064 8.736-1.632 17.504-4.992 25.632a79.744 79.744 0 0 1-16.672 24.32c-7.744 8.256-18.688 16.672-32.736 25.632-17.76 11.744-38.688 20.672-62.688 26.624-24.064 5.952-47.072 12.736-68.928 20.512a200.192 200.192 0 0 0-57.696 31.68c-16.64 13.376-26.88 32.64-30.56 57.76-6.688 44.448-8.128 80.576-4.448 108.32s8.928 44.256 15.552 49.44c3.68 3.744 13.44 7.2 29.44 10.496 43.872 8.992 88.192 15.872 132.736 20.576 54.496 5.76 109.056 10.176 163.744 13.376 26.272 1.376 49.472 2.176 69.344 2.176a1644.608 1644.608 0 0 0 152.192-7.264 2146.272 2146.272 0 0 0 160.992-21.12c19.36-3.2 38.496-7.616 57.248-13.312 15.136-4.736 24.576-9.76 28.32-14.944 6.112-10.016 10.112-21.184 11.616-32.736 2.624-14.496 3.936-29.824 3.936-46.24a346.752 346.752 0 0 0-11.104-87.712z m-356.48-36.544h-0.064c-5.824 11.808-10.816 21.248-14.88 28.32-3.328 6.048-7.68 11.488-12.864 16.128 2.944 9.888 5.568 19.872 7.872 29.952 3.072 12.864 5.824 25.888 8.32 38.88 2.56 13.312 4.928 25.376 7.2 36.128s3.328 18.304 3.328 22.752a28.384 28.384 0 0 1-4.992 13.888 77.856 77.856 0 0 1-12.192 15.552c-4.8 4.8-9.824 8.992-15.008 12.736-5.248 3.744-9.632 5.568-13.312 5.568-3.744 0-7.936-1.824-12.8-5.568a81.088 81.088 0 0 1-13.824-13.888 175.168 175.168 0 0 1-11.744-16.128c-3.328-5.12-4.992-9.632-4.992-13.248 0.32-8.736 1.248-17.504 2.816-26.112 4-24.992 8.992-49.888 15.008-74.496 3.008-12.128 5.184-21.632 6.688-28.256a64.96 64.96 0 0 1-12.32-18.24c-3.616-7.808-8.128-16.864-13.248-27.264a12.992 12.992 0 0 1-0.576-12.256c1.824-4.384 4.192-8.512 7.2-12.192 3.552-5.248 7.68-10.048 12.256-14.432h51.136c4.64 4.64 9.088 9.44 13.344 14.432 3.488 4.128 6.304 8.8 8.256 13.888a17.024 17.024 0 0 1-0.608 13.856z"  /></svg>