<?xml version="1.0" encoding="utf-8"?>
<!-- Generator: Adobe Illustrator 22.0.0, SVG Export Plug-In . SVG Version: 6.00 Build 0)  -->
<svg version="1.1" id="图层_1" xmlns="http://www.w3.org/2000/svg" xmlns:xlink="http://www.w3.org/1999/xlink" x="0px" y="0px"
	 viewBox="0 0 60 60" style="enable-background:new 0 0 60 60;" xml:space="preserve">
<style type="text/css">
	.st0{fill:#4385F5;}
</style>
<path class="st0" d="M25.4,34.6c0-7.7,5.3-14.1,12.4-15.6c0-0.8,0.1-1.6,0.1-2.4c0-0.7,0.5-1.3,0-1.8c-1.9-2.1-4.4-3.6-7.2-4.8
	c-0.3-2.8-2.6-5-5.4-5c-2.8,0-5.1,2.2-5.4,5c-7.2,2.9-11.7,8.4-11.4,16.4c0,0.3,0,0.8,0.1,1.5c0.1,1.2,0.1,2.4,0.2,3.5
	c0,0.6,0,1.1,0.1,1.7C9,36.4,9.1,38.6,9,39.4c0,0.1-0.3,0.4-1.2,0.9C7.6,40.5,6.8,41,6.7,41c-2.1,1.3-3.2,2.3-3.5,4.1
	c-0.5,1.9,1.4,3.8,3.5,3.8H19c0.3,3.4,3,6.2,6.4,6.2c2.3,0,4.3-1.2,5.5-3.2c0.3-0.6,0.2-1.4-0.4-1.7c0,0,0.5-1,1.3-2.8
	C27.9,44.5,25.4,39.8,25.4,34.6z M43.2,21.7c-7.4,0-13.3,6-13.3,13.3c0,7.4,6,13.3,13.3,13.3s13.3-6,13.3-13.3
	C56.6,27.7,50.6,21.7,43.2,21.7z M49.2,34.1v2.1h-4.7v2.9h4.7v2.1h-4.7v4.2H42v-4.2h-4.8v-2.1H42v-2.9h-4.8v-2.1h4l-4.9-9.4h2.9
	l3.5,7.3c0.2,0.4,0.4,0.9,0.7,1.6h0.1c0.2-0.5,0.4-1,0.7-1.6l3.5-7.3h2.7l-5,9.4L49.2,34.1L49.2,34.1z"/>
</svg>
