<?xml version="1.0" standalone="no"?><!DOCTYPE svg PUBLIC "-//W3C//DTD SVG 1.1//EN" "http://www.w3.org/Graphics/SVG/1.1/DTD/svg11.dtd"><svg t="1578883470087" class="icon" viewBox="0 0 1024 1024" version="1.1" xmlns="http://www.w3.org/2000/svg" p-id="3461" data-spm-anchor-id="a313x.7781069.0.i2" xmlns:xlink="http://www.w3.org/1999/xlink" width="60" height="60"><defs><style type="text/css"></style></defs><path d="M857 101H755v828h102c60 0 105-42 105-102V206c0-57-48-105-105-105z m-690 0c-60 0-105 48-105 105v171h126c6 0 12 6 12 12v45c0 6-6 12-12 12H62v138h126c6 0 12 6 12 12v42c0 6-6 12-12 12H62v174c0 60 48 102 105 102h516V98l-516 3z m387 453c9 0 15 12 15 18 0 9-6 18-15 18h-93v57c0 9-12 15-18 15-9 0-18-6-18-15v-57h-96c-9 0-15-12-15-18 0-9 6-18 15-18h96v-48h-96c-9 0-15-12-15-18 0-9 6-18 15-18h69l-48-78c0-6 3-15 12-21 9-3 18-6 24 6l57 93h3l57-93c3-6 18-9 24-6 9 3 12 15 12 21l-48 78h66c9 0 15 12 15 18 0 9-6 18-15 18h-93v48h90z" p-id="3462" fill="#ff822d"></path></svg>