<?xml version="1.0" standalone="no"?><!DOCTYPE svg PUBLIC "-//W3C//DTD SVG 1.1//EN" "http://www.w3.org/Graphics/SVG/1.1/DTD/svg11.dtd"><svg class="icon" width="60px" height="60.00px" viewBox="0 0 1024 1024" version="1.1" xmlns="http://www.w3.org/2000/svg"><path fill="#4385f5" d="M862.72 58.88H161.28c-30.72 0-58.88 25.6-58.88 58.88v788.48c0 33.28 25.6 58.88 58.88 58.88h701.44c33.28 0 58.88-25.6 58.88-58.88V117.76c0-33.28-28.16-58.88-58.88-58.88zM291.84 512c-23.04 0-43.52-20.48-43.52-43.52s20.48-43.52 43.52-43.52c23.04 0 43.52 20.48 43.52 43.52S317.44 512 291.84 512z m0-204.8c-23.04 0-43.52-20.48-43.52-43.52s20.48-43.52 43.52-43.52c23.04 0 43.52 20.48 43.52 43.52s-17.92 43.52-43.52 43.52zM732.16 512h-294.4c-23.04 0-43.52-20.48-43.52-43.52s20.48-43.52 43.52-43.52H729.6c23.04 0 43.52 20.48 43.52 43.52S755.2 512 732.16 512z m0-204.8h-294.4c-23.04 0-43.52-20.48-43.52-43.52s20.48-43.52 43.52-43.52H729.6c23.04 0 43.52 20.48 43.52 43.52s-17.92 43.52-40.96 43.52z"  /></svg>