<?xml version="1.0" standalone="no"?><!DOCTYPE svg PUBLIC "-//W3C//DTD SVG 1.1//EN" "http://www.w3.org/Graphics/SVG/1.1/DTD/svg11.dtd"><svg class="icon" width="60px" height="56.11px" viewBox="0 0 1095 1024" version="1.1" xmlns="http://www.w3.org/2000/svg"><path fill="#4385f5" d="M498.302919 1023.375038L0 763.286746l3.541451-491.220018 498.927881 207.903977-4.166413 543.404333zM578.506357 475.179331l517.364256-203.112603v118.742752h-5.937137L787.035297 511.427118a42.705727 42.705727 0 0 0-23.227749 55.204964 41.664124 41.664124 0 0 0 54.0592 23.748551L1094.62069 479.137422v66.662598L942.650798 605.275557a42.705727 42.705727 0 0 0-23.227748 55.204964 41.664124 41.664124 0 0 0 54.0592 23.74855L1092.329163 635.377886v118.742753L572.881701 1024zM538.092157 0l521.530669 200.716916-513.197844 200.821076-13.020038 5.312176L39.789238 200.716916 538.092157 0z"  /></svg>