<?xml version="1.0" standalone="no"?><!DOCTYPE svg PUBLIC "-//W3C//DTD SVG 1.1//EN" "http://www.w3.org/Graphics/SVG/1.1/DTD/svg11.dtd"><svg class="icon" width="60px" height="60.00px" viewBox="0 0 1024 1024" version="1.1" xmlns="http://www.w3.org/2000/svg"><path fill="#4385f5" d="M788.48 327.68h46.08c50.688 0 92.16 41.472 92.16 92.16v460.8c0 50.688-41.472 92.16-92.16 92.16H189.44c-50.688 0-92.16-41.472-92.16-92.16V419.84c0-50.688 41.472-92.16 92.16-92.16h46.08c0-152.576 123.904-276.48 276.48-276.48s276.48 123.904 276.48 276.48z m-92.16 0c0-101.888-82.432-184.32-184.32-184.32S327.68 225.792 327.68 327.68h368.64z m-144.896 525.312v-90.624h98.304c4.096 0 7.68-1.536 10.24-4.096 2.56-3.072 4.096-6.656 4.096-10.752s-1.536-7.68-4.096-10.752c-2.56-3.072-6.144-4.096-10.24-4.096h-98.304v-62.464h98.304c4.096 0 7.68-1.536 10.24-4.608 2.56-3.072 4.096-6.656 4.096-10.752 0-3.584-1.536-7.168-4.096-10.24-2.56-3.072-6.144-4.096-10.24-4.096H552.96l128.512-185.856c3.584-5.12 4.608-10.752 3.584-16.896-1.024-5.632-4.096-10.24-9.216-13.824-5.12-3.584-10.24-4.608-16.384-3.584-6.144 1.024-10.752 4.096-13.824 8.704l-112.64 162.816c-0.512 1.536-2.048 2.048-3.584 2.048-1.536 0-2.56-0.512-3.584-2.048l-112.64-162.816c-3.584-4.608-8.192-7.68-13.824-8.704s-11.264 0-15.872 3.584c-5.12 3.584-8.704 8.192-9.728 13.824s0 11.264 3.072 16.896l129.024 185.856H409.6c-3.584 0-7.168 1.536-10.24 4.096-3.072 3.072-4.096 6.144-4.096 10.24s1.536 7.68 4.096 10.752c3.072 3.072 6.144 4.608 10.24 4.608h98.304v62.464H409.6c-3.584 0-7.168 1.536-10.24 4.096-3.072 3.072-4.096 6.656-4.096 10.752s1.536 7.68 4.096 10.752c3.072 3.072 6.144 4.096 10.24 4.096h98.304v90.624c0 6.144 2.048 11.264 6.144 15.36 4.096 4.096 9.216 6.144 15.36 6.144s11.264-2.048 15.36-6.144c4.608-4.096 6.656-9.216 6.656-15.36z"  /></svg>