<?xml version="1.0" standalone="no"?><!DOCTYPE svg PUBLIC "-//W3C//DTD SVG 1.1//EN" "http://www.w3.org/Graphics/SVG/1.1/DTD/svg11.dtd"><svg class="icon" width="60px" height="60.00px" viewBox="0 0 1024 1024" version="1.1" xmlns="http://www.w3.org/2000/svg"><path fill="#4385f5" d="M487.228 667.318c-19.282-3.124-19.718-57.164-19.718-57.164s56.646-57.174 68.992-134.048c33.208 0 53.718-81.724 20.51-110.48C558.394 335.356 599.7 128 390.6 128c-209.098 0-167.794 207.356-166.41 237.626-33.212 28.756-12.7 110.48 20.508 110.48 12.346 76.876 68.992 134.048 68.992 134.048s-0.438 54.04-19.718 57.164C231.878 677.392 0 781.664 0 896h781.196c0.002-114.336-231.874-218.608-293.968-228.682z m259.564-13.35c-18.186-2.942-18.596-53.902-18.596-53.902s53.414-53.914 65.058-126.404c31.314 0 50.658-77.07 19.342-104.182 1.304-28.542 40.25-224.076-156.924-224.076-19.776 0-37.168 1.97-52.468 5.538 85.54 57.394 60.586 186.776 59.516 210.192 33.208 28.756 12.7 110.478-20.512 110.478-9.57 59.602-45.764 107.354-61.548 125.806-0.99 2.748-2.324 8.914-2.324 8.914s-2.666 18.666-1.152 33.104c2.8 11.614 7.586 22.066 15.754 23.39 58.102 9.43 264.866 101.332 291.196 206.788H1024c0-107.818-218.658-206.144-277.208-215.646z"  /></svg>