<?xml version="1.0" standalone="no"?><!DOCTYPE svg PUBLIC "-//W3C//DTD SVG 1.1//EN" "http://www.w3.org/Graphics/SVG/1.1/DTD/svg11.dtd"><svg class="icon" width="60px" height="60.00px" viewBox="0 0 1024 1024" version="1.1" xmlns="http://www.w3.org/2000/svg"><path fill="#4385f5" d="M846.082868 169.770592 177.918155 169.770592c-62.868863 0-114.078175 41.240263-114.078175 102.165868l0 75.722612 896.320039 0L960.16002 271.936459C960.16002 211.011878 908.953777 169.770592 846.082868 169.770592L846.082868 169.770592zM63.83998 768.354576c0 60.928674 50.967812 85.87381 113.840768 85.87381l668.638503 0c62.872956 0 113.840768-24.945135 113.840768-85.87381L960.16002 430.399517 63.83998 430.399517 63.83998 768.354576 63.83998 768.354576zM634.225739 512.001023l114.077152 0 0 48.8905L634.225739 560.891524 634.225739 512.001023 634.225739 512.001023zM177.918155 512.001023l342.230432 0 0 48.8905L177.918155 560.891524l-0.23843-47.755654L177.918155 512.001023zM177.918155 626.078175l260.746606 0 0 48.8905L177.918155 674.968675 177.918155 626.078175 177.918155 626.078175z" /></svg>