<?xml version="1.0" standalone="no"?><!DOCTYPE svg PUBLIC "-//W3C//DTD SVG 1.1//EN" "http://www.w3.org/Graphics/SVG/1.1/DTD/svg11.dtd"><svg t="1583315114441" class="icon" viewBox="0 0 1024 1024" version="1.1" xmlns="http://www.w3.org/2000/svg" p-id="1481" xmlns:xlink="http://www.w3.org/1999/xlink" width="200" height="200"><defs><style type="text/css"></style></defs><path d="M-150.80359506-150.80359506h1325.60719012v1325.60719012H-150.80359506z" fill="#999999" fill-opacity="0" p-id="1482"></path><path d="M-150.80359506-150.80359506h1325.60719012v1325.60719012H-150.80359506z" fill="#666666" fill-opacity="0" p-id="1483" data-spm-anchor-id="a313x.7781069.0.i1" class="selected"></path><path d="M884.82702222 25.25360987a113.9193679 113.9193679 0 0 1 113.71224178 106.95993016L998.74639013 139.17297778v538.52792098a113.9193679 113.9193679 0 0 1-106.95993016 113.71224177L884.82702222 791.62026667h-93.20675555V884.82702222a113.9193679 113.9193679 0 0 1-106.95993016 113.71224178L677.70089876 998.74639013H139.17297778A113.9193679 113.9193679 0 0 1 25.25360987 884.82702222V346.29910124A113.9193679 113.9193679 0 0 1 139.17297778 232.37973333h93.20675555V139.17297778a113.9193679 113.9193679 0 0 1 106.95993016-113.71224178L346.29910124 25.25360987h538.52792098z m-207.12612346 269.2639605H139.17297778c-28.58340503 0-51.78153086 23.19812583-51.78153087 51.78153087v538.52792098c0 28.58340503 23.19812583 51.78153086 51.78153087 51.78153087h538.52792098c28.58340503 0 51.78153086-23.19812583 51.78153087-51.78153087V346.29910124c0-28.58340503-23.19812583-51.78153086-51.78153087-51.78153087z m207.12612346-207.12612346H346.29910124a51.78153086 51.78153086 0 0 0-51.53297952 46.4791021L294.51757037 139.17297778v93.20675555H677.70089876a113.9193679 113.9193679 0 0 1 113.71224177 106.95993016l0.20712614 6.95943775v383.18332839H884.82702222a51.78153086 51.78153086 0 0 0 51.53297952-46.47910211L936.60855309 677.70089876V139.17297778a51.78153086 51.78153086 0 0 0-46.4791021-51.53297952L884.82702222 87.39144691z" fill="#999999" p-id="1484"></path></svg>