<?xml version="1.0" encoding="utf-8"?>
<!-- Generator: Adobe Illustrator 22.0.0, SVG Export Plug-In . SVG Version: 6.00 Build 0)  -->
<svg version="1.1" id="图层_1" xmlns="http://www.w3.org/2000/svg" xmlns:xlink="http://www.w3.org/1999/xlink" x="0px" y="0px"
	 viewBox="0 0 200 200" style="enable-background:new 0 0 200 200;" xml:space="preserve">
<style type="text/css">
	.st0{fill:#666666;}
</style>
<path class="st0" d="M143.8,187.5H56.3c-12.1,0-21.9-9.8-21.9-21.9V57.7c0-2.4,2-4.4,4.4-4.4s4.4,2,4.4,4.4v107.9
	c0,7.2,5.9,13.1,13.1,13.1h87.5c7.2,0,13.1-5.9,13.1-13.1V57.7c0-2.4,2-4.4,4.4-4.4c2.4,0,4.4,2,4.4,4.4v107.9
	C165.6,177.7,155.8,187.5,143.8,187.5L143.8,187.5z M183.1,42.5H16.9c-2.4,0-4.4-2-4.4-4.4s2-4.4,4.4-4.4h166.3c2.4,0,4.4,2,4.4,4.4
	S185.5,42.5,183.1,42.5L183.1,42.5z"/>
<path class="st0" d="M126.3,38.8c-2.4,0-4.4-2-4.4-4.4c0-7.2-5.9-13.1-13.1-13.1H91.3c-7.2,0-13.1,5.9-13.1,13.1
	c0,2.4-2,4.4-4.4,4.4s-4.4-2-4.4-4.4c0-12.1,9.8-21.9,21.9-21.9h17.5c12.1,0,21.9,9.8,21.9,21.9C130.6,36.8,128.7,38.8,126.3,38.8
	L126.3,38.8z M64.8,161.9c-2.4,0-4.4-2-4.4-4.4V61.3c0-2.4,2-4.4,4.4-4.4s4.4,2,4.4,4.4v96.2C69.2,159.9,67.2,161.9,64.8,161.9
	L64.8,161.9z M99.8,161.9c-2.4,0-4.4-2-4.4-4.4V61.3c0-2.4,2-4.4,4.4-4.4s4.4,2,4.4,4.4v96.2C104.2,159.9,102.2,161.9,99.8,161.9
	L99.8,161.9z M134.8,161.9c-2.4,0-4.4-2-4.4-4.4V61.3c0-2.4,2-4.4,4.4-4.4s4.4,2,4.4,4.4v96.2C139.2,159.9,137.2,161.9,134.8,161.9
	L134.8,161.9z"/>
</svg>
