<?xml version="1.0" standalone="no"?><!DOCTYPE svg PUBLIC "-//W3C//DTD SVG 1.1//EN" "http://www.w3.org/Graphics/SVG/1.1/DTD/svg11.dtd"><svg t="1570674573870" class="icon" viewBox="0 0 1024 1024" version="1.1" xmlns="http://www.w3.org/2000/svg" p-id="2135" width="48" height="48" xmlns:xlink="http://www.w3.org/1999/xlink"><defs><style type="text/css"></style></defs><path d="M761.81 827.59H292.05c-22.73 0-41.22-18.74-41.22-41.77v-38.3a16.5 16.5 0 0 1 33 0v38.3a8.52 8.52 0 0 0 8.22 8.77h469.76a8.52 8.52 0 0 0 8.22-8.77v-556c0-4.84-3.69-8.78-8.22-8.78H292.05c-4.53 0-8.22 3.94-8.22 8.78v71.26a16.5 16.5 0 0 1-33 0v-71.27c0-23 18.49-41.78 41.22-41.78h469.76c22.73 0 41.22 18.74 41.22 41.78v556c-0.03 23.04-18.49 41.78-41.22 41.78zM267.33 638a16.5 16.5 0 0 1-16.5-16.5v-41.09a16.5 16.5 0 0 1 33 0v41.13a16.5 16.5 0 0 1-16.5 16.46z m0-151.64a16.5 16.5 0 0 1-16.5-16.5v-55.55a16.5 16.5 0 0 1 33 0v55.59a16.5 16.5 0 0 1-16.5 16.5z" p-id="2136" fill="#4285f4"></path><path d="M539.56 701h-0.27a40 40 0 0 1-29.17-12.75 958.76 958.76 0 0 1-68-82.82c-45.3-62.26-67.31-110.8-67.31-148.37 0-92.46 73.78-167.69 164.47-167.69s164.48 75.23 164.48 167.69c0 23-8.27 50.35-24.56 81.42-15 28.58-37.4 61.58-66.58 98.1l-0.58 0.7L569.59 687a39.63 39.63 0 0 1-30.03 14z m-0.27-378.63c-72.49 0-131.47 60.42-131.47 134.69 0 37.28 33.17 90.7 61 129a924.17 924.17 0 0 0 65.44 79.74 7 7 0 0 0 5 2.25h0.27a6.69 6.69 0 0 0 5-2.49l42.4-49.63c27.83-34.84 49-66 63.05-92.74 13.79-26.28 20.79-48.52 20.79-66.08 0-74.33-58.98-134.75-131.48-134.75z" p-id="2137" fill="#4285f4"></path><path d="M539.29 525.78c-37.07 0-67.22-30.83-67.22-68.73s30.15-68.73 67.22-68.73 67.23 30.83 67.23 68.73-30.16 68.73-67.23 68.73z m0-104.46c-18.87 0-34.22 16-34.22 35.73s15.35 35.73 34.22 35.73 34.23-16 34.23-35.73-15.35-35.73-34.23-35.73z" p-id="2138" fill="#4285f4"></path><path d="M236.79 331.14h86.53a18.54 18.54 0 0 1 18.55 18.54v0.82a18.55 18.55 0 0 1-18.55 18.55h-86.53a18.55 18.55 0 0 1-18.54-18.55v-0.82a18.54 18.54 0 0 1 18.54-18.54zM236.79 508.05h86.53a18.54 18.54 0 0 1 18.55 18.54v0.83A18.54 18.54 0 0 1 323.32 546h-86.53a18.54 18.54 0 0 1-18.54-18.54v-0.83a18.54 18.54 0 0 1 18.54-18.58zM236.79 659.69h86.53a18.54 18.54 0 0 1 18.55 18.54v0.82a18.54 18.54 0 0 1-18.55 18.55h-86.53a18.54 18.54 0 0 1-18.54-18.55v-0.82a18.54 18.54 0 0 1 18.54-18.54z" p-id="2139" fill="#4285f4"></path></svg>