<?xml version="1.0" encoding="utf-8"?>
<!-- Generator: Adobe Illustrator 22.0.0, SVG Export Plug-In . SVG Version: 6.00 Build 0)  -->
<svg version="1.1" id="图层_1" xmlns="http://www.w3.org/2000/svg" xmlns:xlink="http://www.w3.org/1999/xlink" x="0px" y="0px"
	 viewBox="0 0 200 200" style="enable-background:new 0 0 200 200;" xml:space="preserve">
<style type="text/css">
	.st0{fill:#666666;}
</style>
<path class="st0" d="M182.9,39.3l-22.2-22.2c-6.1-6.1-16-6.1-22.1,0l-12.1,12.1c-0.3,0.3-0.5,0.5-0.7,0.8c-0.2,0.1-0.3,0.3-0.5,0.4
	L14,141.4c-0.1,0.1-0.1,0.1-0.2,0.2l-0.1,0.1l-0.1,0.1l-0.1,0.1c0,0,0,0.1-0.1,0.1c0,0-0.1,0.1-0.1,0.1l0,0.1l-0.1,0.1
	c0,0,0,0,0,0.1c0,0-0.1,0.1-0.1,0.1l0,0.1l-0.1,0.1l0,0.1c0,0,0,0.1-0.1,0.1c0,0,0,0.1,0,0.1c0,0,0,0.1,0,0.1l0,0.1c0,0,0,0.1,0,0.1
	c0,0,0,0.1,0,0.1l0,0.1c0,0.1,0,0.1,0,0.2c0,0.1,0,0.1,0,0.1c0,0.1,0,0.1,0,0.2l0,0.1c0,0.1,0,0.1,0,0.2c0,0.1,0,0.1,0,0.1
	c0,0,0,0.1,0,0.2c0,0.1,0,0.1,0,0.1l0,0.1v37.5c0,2.9,2.3,5.2,5.2,5.2l0,0h36.4c1.2,0,2.4-0.4,3.3-1.2c0.3-0.2,0.6-0.4,0.9-0.7
	L163.2,81l6.4-6.4c0.2-0.2,0.3-0.3,0.4-0.5c0.3-0.2,0.5-0.5,0.8-0.7l12.1-12.1C189,55.2,189,45.3,182.9,39.3z M52.1,177.1H22.9
	v-29.9l99.7-99.5l29.6,29.5L52.1,177.1z M175.5,54L163.5,66c-2,2-5.3,2-7.4,0l-22.2-22.2c-2-2-2-5.3,0-7.4L146,24.4c2-2,5.3-2,7.4,0
	l22.2,22.2C177.6,48.6,177.6,51.9,175.5,54z"/>
</svg>
