<?xml version="1.0" standalone="no"?><!DOCTYPE svg PUBLIC "-//W3C//DTD SVG 1.1//EN" "http://www.w3.org/Graphics/SVG/1.1/DTD/svg11.dtd"><svg t="1570760832811" class="icon" viewBox="0 0 1024 1024" version="1.1" xmlns="http://www.w3.org/2000/svg" p-id="1745" width="48" height="48" xmlns:xlink="http://www.w3.org/1999/xlink"><defs><style type="text/css"></style></defs><path d="M439.206618 874.684093l-0.806953-0.001341c-116.496219-0.210451-225.996607-45.708158-308.332684-128.108577C47.72018 664.161692 2.431584 554.726987 2.545523 438.431836c0.112598-116.732139 45.610305-226.29955 128.112598-308.521688C213.130925 47.714818 322.947659 2.44901 439.878186 2.44901l0.950382 0.001341c239.65986 0.509373 434.324683 196.36586 433.938633 436.596753-0.187664 116.327322-45.607624 225.716452-127.896785 308.013656-82.289161 82.298544-191.553629 127.623332-307.663798 127.623333z m0.671568-823.978721c-214.329291 0-388.868531 173.954802-389.076301 387.77338-0.209111 213.527699 173.706817 387.560247 387.68625 387.948979l0.718483 0.00134c213.216714 0 386.959724-173.814054 387.304221-387.459713 0.343156-213.636276-172.718903-387.809572-385.784145-388.262645l-0.848508-0.001341z" fill="#666666" p-id="1746"></path><path d="M996.654728 1016.064509a24.054456 24.054456 0 0 1-17.073369-7.07894L815.494984 844.661933c-9.415352-9.428757-9.404629-24.707257 0.025468-34.12261s24.705917-9.404629 34.12261 0.025469l164.086376 164.323636c9.415352 9.428757 9.404629 24.707257-0.025469 34.12261A24.055796 24.055796 0 0 1 996.654728 1016.064509z" fill="#666666" p-id="1747"></path></svg>