<?xml version="1.0" standalone="no"?><!DOCTYPE svg PUBLIC "-//W3C//DTD SVG 1.1//EN" "http://www.w3.org/Graphics/SVG/1.1/DTD/svg11.dtd"><svg t="1578971744529" class="icon" viewBox="0 0 1024 1024" version="1.1" xmlns="http://www.w3.org/2000/svg" p-id="2270" xmlns:xlink="http://www.w3.org/1999/xlink" width="20" height="20"><defs><style type="text/css"></style></defs><path d="M699.838 689.5c114.958-66.558 190.252-193.616 183.53-337.48C874.628 165.802 724.042 13.198 537.822 1.768 323.374-11.674 144.55 158.406 144.55 370.172c0 136.47 73.948 254.786 184.2 318.656-60.504 90.082-105.744 163.998-105.744 280.97 0 4.708 0 9.408 0.67 14.118 0 1.344-0.67 2.696-0.67 3.366 0 19.492 25.074 34.954 44.57 34.954l492.094 0c19.498 0 44.572-15.46 44.572-34.954 0-1.344 0-2.696-0.678-3.366 0-4.708 0.678-9.41 0.678-14.118C804.916 853.5 751.99 777.778 699.838 689.5zM680.216 482.482c-48.402 144.534-283.696 144.534-332.1 0-12.774-36.974 46.388-57.916 59.16-20.942 28.908 85.378 185.546 85.378 214.454 0C633.83 424.566 692.992 444.834 680.216 482.482z" fill="#4385f5" p-id="2271"></path></svg>