<?xml version="1.0" standalone="no"?><!DOCTYPE svg PUBLIC "-//W3C//DTD SVG 1.1//EN" "http://www.w3.org/Graphics/SVG/1.1/DTD/svg11.dtd"><svg t="1578970957312" class="icon" viewBox="0 0 1024 1024" version="1.1" xmlns="http://www.w3.org/2000/svg" p-id="2736" xmlns:xlink="http://www.w3.org/1999/xlink" width="20" height="20"><defs><style type="text/css"></style></defs><path d="M583.68 512.597333l378.026667-378.026666a49.493333 49.493333 0 0 0 0-69.546667l-2.133334-2.133333a49.493333 49.493333 0 0 0-69.632 0L512.085333 441.429333 134.144 62.805333a49.493333 49.493333 0 0 0-69.632 0L62.464 64.938667a48.64 48.64 0 0 0 0 69.546666l378.026667 378.112-378.026667 377.941334a49.493333 49.493333 0 0 0 0 69.632l2.048 2.048a49.493333 49.493333 0 0 0 69.632 0l378.026667-378.026667 378.026666 378.026667a49.493333 49.493333 0 0 0 69.632 0l2.048-2.048a49.493333 49.493333 0 0 0 0-69.632L583.765333 512.597333z" p-id="2737" data-spm-anchor-id="a313x.7781069.0.i4" fill="#666666" class="selected"></path></svg>