<?xml version="1.0" encoding="utf-8"?>
<!-- Generator: Adobe Illustrator 22.0.0, SVG Export Plug-In . SVG Version: 6.00 Build 0)  -->
<svg version="1.1" id="图层_1" xmlns="http://www.w3.org/2000/svg" xmlns:xlink="http://www.w3.org/1999/xlink" x="0px" y="0px"
	 viewBox="0 0 40 40" style="enable-background:new 0 0 40 40;" xml:space="preserve">
<style type="text/css">
	.st0{fill:url(#SVGID_1_);}
	.st1{fill:#FFFFFF;}
</style>
<linearGradient id="SVGID_1_" gradientUnits="userSpaceOnUse" x1="20" y1="40" x2="20" y2="0" gradientTransform="matrix(1 0 0 -1 0 40)">
	<stop  offset="0" style="stop-color:#3CABFB"/>
	<stop  offset="1" style="stop-color:#0C7FFB"/>
</linearGradient>
<circle class="st0" cx="20" cy="20" r="20"/>
<path class="st1" d="M24.8,29c-0.3,0-0.6-0.2-0.7-0.3l-0.3-0.1l0,0l-3.3-2.2L19,28c-0.3,0.3-0.8,0.5-1.2,0.3
	c-0.4-0.2-0.7-0.6-0.7-1.1v-3.3c0-0.2,0-0.4,0.3-0.8l1.8-1.8L16.9,23c-0.4,0.3-0.9,0.4-1.4,0.2l0,0L12,20.8l-0.3-0.3
	c0,0,0,0-0.1-0.1c-0.2-0.2-0.3-0.3-0.3-0.7c0-0.3,0.2-0.5,0.5-0.7l0.3-0.2l14.7-7.5l0,0l0.2-0.1c0.1,0,0.2-0.1,0.2-0.1
	c0.3-0.1,0.4-0.3,0.6-0.3c0.3-0.1,0.5-0.1,0.7,0.1l0,0c0.4,0.3,0.3,1.1,0.2,1.6l-3,15l0,0l-0.1,0.3C25.4,28.6,25.2,28.8,24.8,29
	L24.8,29C25,29,24.9,29,24.8,29z M24.6,28.1c0.1,0,0.2,0.1,0.2,0.1s0-0.1,0.1-0.2l0,0l0.1-0.3l3-15l0,0c0-0.2,0.1-0.3,0.1-0.5
	c0-0.1,0-0.2,0-0.2c-0.1,0-0.3,0.1-0.4,0.2c-0.1,0-0.2,0.1-0.3,0.1l0,0l-0.1,0.1l-14.7,7.5l0,0L12.2,20l0,0l0,0l0.3,0.2l3.4,2.3
	c0.2,0.1,0.3,0.1,0.4-0.1c0,0,0,0,0.1,0l7.4-5.7c0.2-0.2,0.4-0.1,0.5,0.1c0.2,0.2,0.2,0.4,0,0.5l-6.4,6.3c0,0,0,0,0,0.2v3.3
	c0,0.2,0.1,0.3,0.3,0.4l0,0c0.1,0.1,0.3-0.1,0.3-0.1l1.8-1.8c0.2-0.2,0.3-0.2,0.5-0.1l3.6,2.4L24.6,28.1L24.6,28.1z"/>
</svg>
