<?xml version="1.0" standalone="no"?><!DOCTYPE svg PUBLIC "-//W3C//DTD SVG 1.1//EN" "http://www.w3.org/Graphics/SVG/1.1/DTD/svg11.dtd"><svg t="1570696823706" class="icon" viewBox="0 0 1024 1024" version="1.1" xmlns="http://www.w3.org/2000/svg" p-id="24803" xmlns:xlink="http://www.w3.org/1999/xlink" width="100" height="100"><defs><style type="text/css"></style></defs><path d="M962.61188267 539.844608L108.527616 112.47616c-22.95944533-11.534336-45.48471467-11.42784-61.74583467 0.221184-16.25838933 11.64629333-23.617536 32.956416-20.21239466 58.441728l84.70528 628.097024c4.39364267 32.51950933 20.87594667 58.55368533 46.252032 73.383936 25.378816 14.835712 56.139776 16.26112 86.57032533 3.95400533l202.702848-81.846272c5.16369067-1.97973333 12.304384 0.54613333 15.05143467 5.49410134l67.89256533 122.49770666c12.30711467 22.192128 30.654464 34.824192 50.53917867 34.824192 0.221184 0 0.43963733 0 0.66082133-0.106496 20.10589867-0.221184 38.34402133-13.51133867 50.09954133-36.364288l105.57576534-205.553664c4.83328-9.44810667 19.226624-20.652032 29.66596266-23.18062933l183.90766934-43.83812267c44.826624-10.657792 56.47291733-32.079872 58.33796266-48.23176533 1.867776-16.14370133-4.50013867-39.76669867-45.91889066-60.424192z m-316.61533867 221.86939733l-8.58794667 25.04840534-37.38282666 109.03825066c-14.42338133 42.06865067-35.76354133-3.178496-35.76354134-3.178496-27.910144-71.51069867-67.55396267-142.385152-67.55396266-142.385152C479.141888 717.95234133 68.26666667 145.69198933 68.26666667 145.69198933l563.31195733 529.30423467c38.95569067 47.12311467 14.41792 86.71778133 14.41792 86.71778133z" fill="#fe5656" p-id="24804"></path></svg>