<?xml version="1.0" encoding="utf-8"?>
<!-- Generator: Adobe Illustrator 22.0.0, SVG Export Plug-In . SVG Version: 6.00 Build 0)  -->
<svg version="1.1" id="图层_1" xmlns="http://www.w3.org/2000/svg" xmlns:xlink="http://www.w3.org/1999/xlink" x="0px" y="0px"
	 viewBox="0 0 40 40" style="enable-background:new 0 0 40 40;" xml:space="preserve">
<style type="text/css">
	.st0{fill:url(#SVGID_1_);}
	.st1{fill:#FFFFFF;}
</style>
<linearGradient id="SVGID_1_" gradientUnits="userSpaceOnUse" x1="20" y1="40" x2="20" y2="0" gradientTransform="matrix(1 0 0 -1 0 40)">
	<stop  offset="0" style="stop-color:#FD9077"/>
	<stop  offset="1" style="stop-color:#FF2D35"/>
</linearGradient>
<circle class="st0" cx="20" cy="20" r="20"/>
<g>
	<path class="st1" d="M11.5,14.3h17.1V15H11.5V14.3z"/>
	<path class="st1" d="M13.7,29c-1.6,0-2.6-0.9-2.6-2.8V14.6l2.6-3.6h13l2.2,3.6v11.8c0,1.5-1.5,2.5-2.5,2.5c-0.3,0-2.6,0-5.1,0
		C18.1,28.9,14.4,29,13.7,29z M11.9,14.9v11.3c0,1.8,0.9,2,1.7,2s4.5,0,7.8,0c2.5,0,4.7,0,5.1,0c0.6,0,1.6-0.6,1.6-1.6V14.9
		l-1.9-3.1H14.1L11.9,14.9z"/>
	<path class="st1" d="M21.6,23.6c0,0.3,0.2,0.4,0.4,0.4H26c0.3,0,0.4-0.2,0.4-0.4c0-0.3-0.2-0.4-0.4-0.4h-3.9
		C21.8,23.2,21.6,23.3,21.6,23.6z M26,25.2h-6.8c-0.3,0-0.4,0.2-0.4,0.4c0,0.3,0.2,0.4,0.4,0.4H26c0.3,0,0.4-0.2,0.4-0.4
		S26.3,25.2,26,25.2z M22.1,11h-0.8v6.9H19V11h-0.8v7.7h4L22.1,11z"/>
</g>
</svg>
