<?xml version="1.0" standalone="no"?><!DOCTYPE svg PUBLIC "-//W3C//DTD SVG 1.1//EN" "http://www.w3.org/Graphics/SVG/1.1/DTD/svg11.dtd"><svg t="1580988330566" class="icon" viewBox="0 0 1024 1024" version="1.1" xmlns="http://www.w3.org/2000/svg" p-id="1057" data-spm-anchor-id="a313x.7781069.0.i1" xmlns:xlink="http://www.w3.org/1999/xlink" width="16" height="16"><defs><style type="text/css"></style></defs><path d="M512 14.009c-278.418 0-504.168 225.75-504.219 504.219 0 278.567 225.75 504.269 504.219 504.269 278.517 0 504.269-225.75 504.269-504.269 0-278.468-225.7-504.219-504.269-504.219z m222.996 497.653c1.704 8.067 2.556 17.238 2.556 27.561 0 12.629-0.852 23.252-2.556 31.871H569.78v75.769h165.216c1.704 8.018 2.556 17.189 2.556 27.512 0 12.679-0.852 23.252-2.556 31.871H569.78v135.1c-6.966 1.103-14.081 2.005-21.548 2.606-7.466 0.601-14.982 0.902-22.399 0.902-7.466 0-14.883-0.3-22.349-0.902-7.417-0.601-14.633-1.452-21.548-2.606v-135.1H323.585c-2.306-6.916-3.457-16.636-3.457-29.265 0-5.212 0.3-10.323 0.852-15.535 0.601-5.162 1.452-10.022 2.606-14.583h158.351v-75.769H323.586c-2.306-6.916-3.457-16.636-3.457-29.265 0-5.162 0.3-10.323 0.852-15.535 0.601-5.162 1.452-10.022 2.606-14.633h123.925L289.161 232.843c7.466-1.152 15.635-2.005 24.505-2.556 8.969-0.601 17.439-0.902 25.457-0.902s16.335 0.3 24.956 0.852 16.335 1.404 23.252 2.556L528.444 492.72l138.607-259.927a275.888 275.888 0 0 1 22.799-2.556c7.667-0.55 15.635-0.852 23.653-0.852s16.035 0.3 24.053 0.852c8.067 0.55 15.535 1.404 22.399 2.556L604.209 511.611h130.79zM496.014 706.195z" fill="#ffffff" p-id="1058"></path></svg>