<?xml version="1.0" standalone="no"?><!DOCTYPE svg PUBLIC "-//W3C//DTD SVG 1.1//EN" "http://www.w3.org/Graphics/SVG/1.1/DTD/svg11.dtd"><svg t="1570673032577" class="icon" viewBox="0 0 1024 1024" version="1.1" xmlns="http://www.w3.org/2000/svg" p-id="1702" width="48" height="48" xmlns:xlink="http://www.w3.org/1999/xlink"><defs><style type="text/css"></style></defs><path d="M512 989.12C248.42666667 989.12 34.88 775.57333333 34.88 512S248.42666667 34.88 512 34.88 989.12 248.42666667 989.12 512 775.57333333 989.12 512 989.12zM341.22666667 720.85333333h200.10666666V598.29333333H341.22666667v122.56z m382.82666666-403.94666666H522.88c-6.82666667-18.02666667-13.33333333-33.6-19.52-46.61333334l-41.17333333 6.50666667c7.25333333 11.52 14.29333333 24.96 21.12 40.10666667H278.29333333v102.50666666h36.90666667v-67.73333333h371.94666667v67.73333333h36.90666666v-102.50666666zM515.2 430.29333333h148.05333333v-33.6H524.48c0.74666667-4.37333333 1.06666667-7.57333333 1.06666667-9.70666666V364.8h-35.73333334v22.18666667l-1.06666666 9.70666666H338.98666667v33.6h135.57333333c-6.50666667 8.32-14.29333333 15.68-23.36 22.18666667-26.02666667 16.32-71.78666667 29.33333333-137.17333333 39.04l19.52 30.93333333c67.2-11.52 115.30666667-27.52 144.21333333-47.68 1.49333333-1.49333333 3.94666667-3.62666667 7.57333333-6.50666666 57.49333333 13.76 113.17333333 32.21333333 167.04 55.36l20.58666667-30.93333334c-47.68-18.77333333-102.61333333-35.41333333-164.8-49.92l7.04-12.48z m226.13333333 97.6H261.44v35.84H614.4v154.02666667c0 13.01333333-7.57333333 19.52-22.82666667 19.52-14.08 0-30.72-0.85333333-49.92-2.66666667l8.10666667 36.90666667h54.72c31.78666667 0 47.68-14.61333333 47.68-43.94666667V563.62666667H741.33333333v-35.73333334z m-363.84 104.10666667h127.46666667v55.25333333H377.49333333v-55.25333333z" fill="#333333" p-id="1703"></path></svg>