<?xml version="1.0" standalone="no"?><!DOCTYPE svg PUBLIC "-//W3C//DTD SVG 1.1//EN" "http://www.w3.org/Graphics/SVG/1.1/DTD/svg11.dtd"><svg t="1572493132845" class="icon" viewBox="0 0 1024 1024" version="1.1" xmlns="http://www.w3.org/2000/svg" p-id="30605" xmlns:xlink="http://www.w3.org/1999/xlink" width="128" height="128"><defs><style type="text/css"></style></defs><path d="M700.8 809.6c16 0 25.6-9.6 25.6-22.4V70.4c0-12.8-12.8-25.6-25.6-25.6H134.4c-12.8 0-25.6 12.8-25.6 25.6v716.8c0 12.8 12.8 25.6 25.6 25.6h566.4z" fill="#FFFFFF" p-id="30606"></path><path d="M700.8 822.4H134.4c-19.2 0-38.4-16-38.4-38.4V70.4C96 51.2 115.2 32 134.4 32h566.4c19.2 0 38.4 16 38.4 38.4v720c0 19.2-16 32-38.4 32zM134.4 57.6c-6.4 0-12.8 6.4-12.8 12.8v716.8c0 6.4 6.4 12.8 12.8 12.8h566.4c3.2 0 12.8 0 12.8-9.6V70.4c0-6.4-6.4-12.8-12.8-12.8H134.4z" fill="#E3E3E3" p-id="30607"></path><path d="M268.8 992c6.4 0 12.8-3.2 19.2-9.6l86.4-92.8 9.6 12.8 76.8 83.2c6.4 6.4 12.8 9.6 19.2 9.6 6.4 0 12.8-3.2 19.2-9.6l86.4-92.8 9.6 9.6 76.8 83.2c9.6 9.6 25.6 9.6 35.2 0l89.6-92.8 9.6 9.6 76.8 83.2c6.4 6.4 16 9.6 25.6 6.4 9.6-3.2 16-12.8 16-22.4V204.8c0-12.8-12.8-25.6-25.6-25.6H268.8c-12.8 0-25.6 12.8-25.6 25.6v764.8c0 9.6 6.4 19.2 16 22.4l6.4 3.2c-3.2-3.2 0-3.2 3.2-3.2z" fill="#FFFFFF" p-id="30608"></path><path d="M480 1004.8c-9.6 0-19.2-3.2-28.8-12.8l-76.8-83.2L297.6 992c-9.6 9.6-22.4 12.8-28.8 12.8v-9.6l-6.4 9.6-6.4-3.2c-12.8-3.2-22.4-19.2-22.4-32V204.8c0-19.2 19.2-38.4 38.4-38.4h633.6c19.2 0 38.4 16 38.4 38.4v764.8c0 16-9.6 28.8-25.6 35.2-16 6.4-32 3.2-38.4-9.6l-76.8-83.2-86.4 80c-16 16-41.6 16-54.4 0l-76.8-83.2-76.8 83.2c-9.6 9.6-19.2 12.8-28.8 12.8zM268.8 992z m0-3.2z m0-9.6c3.2 0 6.4-3.2 12.8-6.4l92.8-102.4 96 102.4c3.2 3.2 6.4 3.2 9.6 3.2 3.2 0 6.4 0 9.6-3.2l96-102.4 96 102.4c3.2 3.2 12.8 3.2 19.2 0l99.2-102.4 96 105.6c3.2 3.2 3.2 6.4 12.8 3.2 3.2 0 6.4-6.4 6.4-9.6V204.8c0-6.4-6.4-12.8-12.8-12.8H268.8c-6.4 0-12.8 6.4-12.8 12.8v764.8c0 3.2 3.2 9.6 6.4 9.6h6.4z" fill="#E3E3E3" p-id="30609"></path><path d="M678.4 441.6h-259.2c-19.2 0-38.4-16-38.4-38.4 0-19.2 19.2-38.4 38.4-38.4h259.2c19.2 0 38.4 16 38.4 38.4s-19.2 38.4-38.4 38.4z m70.4 179.2H419.2c-19.2 0-38.4-16-38.4-38.4 0-19.2 19.2-38.4 38.4-38.4h329.6c19.2 0 38.4 16 38.4 38.4 0 19.2-19.2 38.4-38.4 38.4z" fill="#E3E3E3" p-id="30610"></path></svg>