<?xml version="1.0" standalone="no"?><!DOCTYPE svg PUBLIC "-//W3C//DTD SVG 1.1//EN" "http://www.w3.org/Graphics/SVG/1.1/DTD/svg11.dtd"><svg t="1571018291126" class="icon" viewBox="0 0 1024 1024" version="1.1" xmlns="http://www.w3.org/2000/svg" p-id="8443" xmlns:xlink="http://www.w3.org/1999/xlink" width="200" height="200"><defs><style type="text/css"></style></defs><path d="M842.10725888 316.55585222h-24.27259221v-101.94488888c0-41.26340779-33.98163001-75.24503666-75.24503666-75.2450378l-565.55140779 111.65392669c-55.82696334 16.99081443-60.6814811 60.6814811-60.6814811 75.24503665v463.6065189c0 41.26340779 33.98163001 75.24503666 75.24503666 75.24503666h650.5054811c41.26340779 0 75.24503666-33.98163001 75.24503779-75.24503666V389.37363c0-38.83614777-33.98163001-72.81777778-75.24503779-72.81777778z m-648.07822222-16.99081557L745.01688889 187.91111111c14.56355555 0 21.84533333 12.13629667 21.84533333 24.27259221v101.94488889H215.87436999c-16.99081443 2.42725888-24.27259221-14.56355555-21.84533333-14.56355556zM803.27111111 627.24503666c-19.41807445 19.41807445-53.39970333 19.41807445-70.3905189 0-19.41807445-19.41807445-19.41807445-53.39970333 0-70.39051777 19.41807445-19.41807445 53.39970333-19.41807445 70.3905189 0 16.99081443 16.99081443 16.99081443 48.54518557 0 70.39051777z" fill="#F68F50" p-id="8444"></path></svg>