<?xml version="1.0" standalone="no"?><!DOCTYPE svg PUBLIC "-//W3C//DTD SVG 1.1//EN" "http://www.w3.org/Graphics/SVG/1.1/DTD/svg11.dtd"><svg t="1578971758165" class="icon" viewBox="0 0 1024 1024" version="1.1" xmlns="http://www.w3.org/2000/svg" p-id="2453" xmlns:xlink="http://www.w3.org/1999/xlink" width="20" height="20"><defs><style type="text/css"></style></defs><path d="M830.138903 62.420306H193.758769c-72.550814 0-131.389627 58.838813-131.389627 131.389627v636.380134c0 72.550814 58.838813 131.389627 131.389627 131.389627h636.380134c72.550814 0 131.389627-58.838813 131.389627-131.389627v-636.380134c0-72.550814-58.838813-131.389627-131.389627-131.389627z m-31.721795 739.322474h-577.132008v-63.852903h119.31488V479.613071h63.852903v258.276806H479.97122V347.609473h63.852903V544.898571h194.116918v63.852903h-194.116918v129.138403h254.592985v63.852903z m0.409314-295.422005l-220.210653-220.210652H441.086439L220.978115 506.218447l-45.126811-45.126811L415.197362 221.745578l0.511642 0.511642h157.58569l31.210153-0.511642 239.448386 239.448386-45.126811 45.126811z" fill="#4385f5" p-id="2454"></path></svg>