<?xml version="1.0" standalone="no"?><!DOCTYPE svg PUBLIC "-//W3C//DTD SVG 1.1//EN" "http://www.w3.org/Graphics/SVG/1.1/DTD/svg11.dtd"><svg t="1570781635333" class="icon" viewBox="0 0 1024 1024" version="1.1" xmlns="http://www.w3.org/2000/svg" p-id="1998" xmlns:xlink="http://www.w3.org/1999/xlink" width="48" height="48"><defs><style type="text/css"></style></defs><path d="M358.016 781.102a27.96 27.96 0 0 0 27.93-27.93V401.608c0-15.401-12.529-27.93-27.93-27.93s-27.93 12.529-27.93 27.93v351.56c0.594 15.313 13.128 27.934 27.93 27.934z m307.968 0a27.955 27.955 0 0 0 27.924-27.93V401.608c0-15.401-12.523-27.93-27.924-27.93s-27.924 12.529-27.924 27.93v351.56a27.96 27.96 0 0 0 27.924 27.934z m-153.984 0a27.96 27.96 0 0 0 27.93-27.93V401.608c0-15.401-12.529-27.93-27.93-27.93s-27.93 12.529-27.93 27.93v351.56A27.965 27.965 0 0 0 512 781.101z" fill="#999999" p-id="1999"></path><path d="M928.952 188.058H715.715v-38.17c0-39.434-32.087-71.521-71.522-71.521h-263.68c-39.434 0-71.521 32.087-71.521 71.521v38.17H95.048a27.96 27.96 0 0 0-27.93 27.93 27.955 27.955 0 0 0 27.93 27.924h103.557v586.603c0 63.862 51.952 115.815 115.82 115.815H709.58c63.862 0 115.814-51.953 115.814-115.815v-587.31h103.557a27.96 27.96 0 0 0 27.93-27.93c0-15.262-12.273-27.217-27.93-27.217z m-564.807-38.17a16.195 16.195 0 0 1 16.368-16.369h263.675a16.195 16.195 0 0 1 16.369 16.369v38.17H364.145v-38.17zM769.54 830.515c0 33.065-26.9 59.966-59.96 59.966H314.424c-33.065 0-59.965-26.9-59.965-59.966v-587.31H769.54v587.31z" fill="#999999" p-id="2000"></path></svg>