<?xml version="1.0" standalone="no"?><!DOCTYPE svg PUBLIC "-//W3C//DTD SVG 1.1//EN" "http://www.w3.org/Graphics/SVG/1.1/DTD/svg11.dtd"><svg t="1578903624200" class="icon" viewBox="0 0 1024 1024" version="1.1" xmlns="http://www.w3.org/2000/svg" p-id="4143" xmlns:xlink="http://www.w3.org/1999/xlink" width="20" height="20"><defs><style type="text/css"></style></defs><path d="M770.47808 838.20032c0 30.96064-25.20064 56.16128-56.16128 56.16128H309.67808c-30.96064 0-56.16128-25.20064-56.16128-56.16128V242.03776h516.96128v596.16256zM365.83936 141.24032a11.3664 11.3664 0 0 1 11.52-11.52h269.99808a11.3664 11.3664 0 0 1 11.52 11.52v33.83808H365.83936v-33.83808z m573.12256 33.83808h-213.12v-33.83808c0-43.20256-35.28192-78.47936-78.47936-78.47936H377.35936c-43.20256 0-78.47936 35.28192-78.47936 78.47936v33.83808H85.03808c-18.71872 0-33.83808 15.11936-33.83808 33.83808s15.11936 33.83808 33.83808 33.83808h100.80256V838.1952c0 68.39808 55.43936 123.84256 123.84256 123.84256h404.63872c68.39808 0 123.84256-55.43936 123.84256-123.84256V242.03776h100.80256c18.71872 0 33.83808-15.11936 33.83808-33.83808s-15.12448-33.12128-33.8432-33.12128zM512 792.84224a33.79712 33.79712 0 0 0 33.83808-33.83808V399.0016c0-18.71872-15.11936-33.83808-33.83808-33.83808s-33.83808 15.11936-33.83808 33.83808v360.00256a33.80224 33.80224 0 0 0 33.83808 33.83808m-157.68064 0a33.79712 33.79712 0 0 0 33.83808-33.83808V399.0016c0-18.71872-15.11936-33.83808-33.83808-33.83808s-33.83808 15.11936-33.83808 33.83808v360.00256c0.7168 18.7136 15.84128 33.83808 33.83808 33.83808m315.36128 0a33.79712 33.79712 0 0 0 33.83808-33.83808V399.0016c0-18.71872-15.11936-33.83808-33.83808-33.83808s-33.83808 15.11936-33.83808 33.83808v360.00256a33.80224 33.80224 0 0 0 33.83808 33.83808" p-id="4144" fill="#ffffff"></path></svg>