<?xml version="1.0" standalone="no"?><!DOCTYPE svg PUBLIC "-//W3C//DTD SVG 1.1//EN" "http://www.w3.org/Graphics/SVG/1.1/DTD/svg11.dtd"><svg t="1570696851816" class="icon" viewBox="0 0 1024 1024" version="1.1" xmlns="http://www.w3.org/2000/svg" p-id="24975" xmlns:xlink="http://www.w3.org/1999/xlink" width="100" height="100"><defs><style type="text/css"></style></defs><path d="M127.72800031 288.00000031h338.09599969a16.00000031 16.00000031 0 0 0 16.00000031-16.00000031V111.99999969a16.00000031 16.00000031 0 0 0-16.00000031-15.99999938H260.07999969a64.00000031 64.00000031 0 0 0-53.24799938 28.49599969l-92.41600031 138.624A16.00000031 16.00000031 0 0 0 127.72800031 288.00000031zM561.84000031 288.00000031h338.09599969a16.00000031 16.00000031 0 0 0 13.31200031-24.88000031l-92.41600031-138.624A64.00000031 64.00000031 0 0 0 767.58399969 96.00000031H561.84000031a16.00000031 16.00000031 0 0 0-16.00000031 15.99999938v160.00000031a16.00000031 16.00000031 0 0 0 16.00000031 16.00000031zM912.00000031 351.99999969H561.84000031a16.00000031 16.00000031 0 0 0-16.00000031 16.00000031v234.30400031c0 14.256 17.232 21.39199969 27.312 11.31199969l75.04000031-75.04000031c11.26399969-11.26399969 29.40799969-13.99999969 42.336-4.68799969a31.99999969 31.99999969 0 0 1 4.09599938 48.73600031l-159.99999938 159.99999938c-6.24 6.25600031-14.43199969 9.37600031-22.62400031 9.37600031s-16.38400031-3.12-22.62400031-9.37600031l-158.75199938-158.75199938c-11.28-11.28-14.04799969-29.44000031-4.752-42.384a31.99999969 31.99999969 0 0 1 48.73599938-4.11200062l79.88800031 79.88800031c10.08 10.08 27.312 2.94400031 27.312-11.31199969V368a16.00000031 16.00000031 0 0 0-16.00000031-16.00000031H111.99999969a16.00000031 16.00000031 0 0 0-15.99999938 16.00000031v496.00000031a64.00000031 64.00000031 0 0 0 63.99999938 63.99999938h704.00000062a64.00000031 64.00000031 0 0 0 63.99999938-63.99999938V368a16.00000031 16.00000031 0 0 0-15.99999938-16.00000031z" fill="#4285f4" p-id="24976"></path></svg>