<?xml version="1.0" standalone="no"?><!DOCTYPE svg PUBLIC "-//W3C//DTD SVG 1.1//EN" "http://www.w3.org/Graphics/SVG/1.1/DTD/svg11.dtd"><svg t="1570673155583" class="icon" viewBox="0 0 1024 1024" version="1.1" xmlns="http://www.w3.org/2000/svg" p-id="1903" width="64" height="64" xmlns:xlink="http://www.w3.org/1999/xlink"><defs><style type="text/css"></style></defs><path d="M514.531 399.91c4.891 82.32 28.674 151.649 71.352 207.987 38.461-54.147 59.545-123.476 63.258-207.987h-134.61z" fill="#fd9523" p-id="1904"></path><path d="M512 34.274C248.159 34.274 34.274 248.159 34.274 512S248.159 989.727 512 989.727 989.727 775.841 989.727 512 775.841 34.274 512 34.274z m-91.848 725.437h-38.46V603.595c-20.582 11.474-41.496 24.208-62.75 38.207-8.773 6.412-17.376 14.003-25.809 22.772l-28.845-33.905c10.457-11.134 15.688-25.639 15.688-43.521V336.147h38.459v259.098a7346.445 7346.445 0 0 0 63.256-33.905V265.3h38.46v494.411z m310.715-1.518c-60.055-25.643-107.959-55.246-143.719-88.812-32.557 32.047-77.595 63.169-135.115 93.366-7.084-11.134-15.688-22.437-25.809-33.905 57.52-28.846 101.969-58.702 133.344-89.571-38.965-48.747-64.185-109.307-75.654-181.672-9.449 18.388-19.23 36.1-29.351 53.135-6.413-9.781-15.521-20.578-27.327-32.387 43.18-74.896 74.39-147.261 93.619-217.096l40.99 11.639c-10.797 31.209-22.1 61.066-33.904 89.571h220.637v37.448h-59.461c-5.061 97.668-30.109 177.205-75.148 238.603 34.242 30.362 82.822 56.761 145.742 79.196-10.461 13.158-20.074 26.652-28.844 40.485z" fill="#fd9523" p-id="1905"></path></svg>