<?xml version="1.0" standalone="no"?><!DOCTYPE svg PUBLIC "-//W3C//DTD SVG 1.1//EN" "http://www.w3.org/Graphics/SVG/1.1/DTD/svg11.dtd"><svg t="1571294974660" class="icon" viewBox="0 0 1024 1024" version="1.1" xmlns="http://www.w3.org/2000/svg" p-id="2614" xmlns:xlink="http://www.w3.org/1999/xlink" width="16" height="16"><defs><style type="text/css"></style></defs><path d="M515.657143 384c18.285714 0 29.257143-10.971429 29.257143-29.257143s-10.971429-29.257143-29.257143-29.257143-36.571429 10.971429-36.571429 29.257143c3.657143 18.285714 21.942857 29.257143 36.571429 29.257143zM592.457143 497.371429c-10.971429 0-21.942857 10.971429-21.942857 21.942857s10.971429 21.942857 21.942857 21.942857c18.285714 0 29.257143-10.971429 29.257143-21.942857s-10.971429-21.942857-29.257143-21.942857zM351.085714 325.485714c-18.285714 0-36.571429 10.971429-36.571428 29.257143s18.285714 29.257143 36.571428 29.257143 29.257143-10.971429 29.257143-29.257143-10.971429-29.257143-29.257143-29.257143z" fill="#4AC759" p-id="2615"></path><path d="M512 0C230.4 0 0 230.4 0 512s230.4 512 512 512 512-230.4 512-512S793.6 0 512 0z m-84.114286 625.371429c-29.257143 0-54.857143-7.314286-84.114285-10.971429l-84.114286 40.228571 25.6-69.485714c-58.514286-40.228571-95.085714-95.085714-95.085714-160.914286 0-113.371429 106.057143-201.142857 237.714285-201.142857 117.028571 0 219.428571 69.485714 237.714286 164.571429h-21.942857c-113.371429 0-201.142857 84.114286-201.142857 186.514286 0 18.285714 3.657143 32.914286 7.314285 51.2h-21.942857z m347.428572 84.114285l18.285714 58.514286-62.171429-36.571429c-21.942857 7.314286-47.542857 10.971429-69.485714 10.971429-113.371429 0-201.142857-76.8-201.142857-171.885714s87.771429-171.885714 201.142857-171.885715c106.057143 0 201.142857 76.8 201.142857 171.885715-3.657143 54.857143-40.228571 102.4-87.771428 138.971428z" fill="#4AC759" p-id="2616"></path><path d="M724.114286 497.371429c-10.971429 0-21.942857 10.971429-21.942857 21.942857s10.971429 21.942857 21.942857 21.942857c18.285714 0 29.257143-10.971429 29.257143-21.942857s-10.971429-21.942857-29.257143-21.942857z" fill="#4AC759" p-id="2617"></path></svg>