<?xml version="1.0" encoding="utf-8"?>
<!-- Generator: Adobe Illustrator 22.0.0, SVG Export Plug-In . SVG Version: 6.00 Build 0)  -->
<svg version="1.1" id="图层_1" xmlns="http://www.w3.org/2000/svg" xmlns:xlink="http://www.w3.org/1999/xlink" x="0px" y="0px"
	 viewBox="0 0 40 40" style="enable-background:new 0 0 40 40;" xml:space="preserve">
<style type="text/css">
	.st0{fill:url(#SVGID_1_);}
	.st1{fill:#FFFFFF;}
</style>
<linearGradient id="SVGID_1_" gradientUnits="userSpaceOnUse" x1="20" y1="-25" x2="20" y2="15" gradientTransform="matrix(1 0 0 1 0 25)">
	<stop  offset="0" style="stop-color:#FFED21"/>
	<stop  offset="1" style="stop-color:#FFD201"/>
</linearGradient>
<circle class="st0" cx="20" cy="20" r="20"/>
<path class="st1" d="M22.3,10.9c-0.4-0.4-0.9-0.4-1.3,0L10.9,21c-0.4,0.4-0.4,0.9,0,1.3l1.3,1.3c1.6-0.8,3.5-0.1,4.3,1.5
	c0.4,0.9,0.4,1.9,0,2.8l1.3,1.3c0.4,0.4,0.9,0.4,1.3,0L29.1,19c0.4-0.4,0.4-0.9,0-1.3l-1-1c-1.5,0.9-3.5,0.5-4.4-1.1
	c-0.6-1-0.6-2.3,0-3.4C23.7,12.3,22.3,10.9,22.3,10.9z M29.8,17.1c0.7,0.7,0.7,1.9,0,2.6L19.7,29.8c-0.7,0.7-1.9,0.7-2.6,0L15.3,28
	c0.8-1,0.7-2.4-0.2-3.3c-0.9-0.8-2.2-0.8-3,0l-1.8-1.8c-0.7-0.7-0.7-1.9,0-2.6l10.1-10.1c0.7-0.7,1.9-0.7,2.6,0l2,2
	c-1,0.8-1.1,2.3-0.2,3.3c0.8,1,2.3,1.1,3.3,0.2c0.1-0.1,0.2-0.2,0.2-0.2L29.8,17.1L29.8,17.1z M20.4,16.4l-3.9,3.9
	c-0.2,0.2-0.2,0.5,0,0.7c0.2,0.2,0.5,0.2,0.6,0l3.9-3.9c0.2-0.2,0.2-0.5,0-0.7C20.8,16.3,20.5,16.3,20.4,16.4L20.4,16.4z M22.9,19.2
	l-3.7,3.7c-0.2,0.2-0.2,0.5,0,0.7c0.2,0.2,0.5,0.2,0.6,0l3.7-3.7c0.2-0.2,0.2-0.5,0-0.7C23.4,19,23.1,19,22.9,19.2L22.9,19.2z"/>
</svg>
