<?xml version="1.0" standalone="no"?><!DOCTYPE svg PUBLIC "-//W3C//DTD SVG 1.1//EN" "http://www.w3.org/Graphics/SVG/1.1/DTD/svg11.dtd"><svg t="1584499721018" class="icon" viewBox="0 0 1024 1024" version="1.1" xmlns="http://www.w3.org/2000/svg" p-id="2229" data-spm-anchor-id="a313x.7781069.0.i0" xmlns:xlink="http://www.w3.org/1999/xlink" width="200" height="200"><defs><style type="text/css"></style></defs><path d="M511.68 1015c-86.87 0-172.58-22.78-249.82-67.38C145.9 880.68 62.95 772.58 28.3 643.24-6.36 513.91 11.43 378.81 78.37 262.86 145.32 146.9 253.42 63.95 382.76 29.29l3.92 14.64-3.92-14.64C512.08-5.35 647.19 12.42 763.14 79.37 879.1 146.32 962.05 254.41 996.7 383.75c34.66 129.33 16.88 264.42-50.07 380.38S771.58 963.05 642.25 997.7c-43.19 11.58-87.03 17.3-130.57 17.3zM390.6 58.57C139.75 125.78-9.65 384.55 57.57 635.4c32.56 121.52 110.49 223.08 219.44 285.98 108.95 62.91 235.88 79.6 357.39 47.06C755.92 935.88 857.48 857.95 920.38 749c62.91-108.95 79.61-235.88 47.06-357.39C934.88 270.09 856.95 168.53 748 105.63 639.04 42.72 512.11 26.01 390.6 58.57z" p-id="2230" data-spm-anchor-id="a313x.7781069.0.i1" class="" fill="#ffffff"></path><path d="M511.78 954.22c-76.34 0-151.66-20.02-219.54-59.22-101.9-58.83-174.8-153.83-205.25-267.49-62.87-234.63 76.87-476.66 311.5-539.53 234.61-62.86 476.66 76.87 539.53 311.5 62.87 234.63-76.87 476.66-311.5 539.53-37.95 10.17-76.48 15.21-114.74 15.21zM401.1 97.74C171.85 159.17 35.32 395.65 96.74 624.9c29.76 111.05 100.98 203.87 200.55 261.36 99.57 57.49 215.56 72.76 326.61 43 229.25-61.43 365.78-297.91 304.36-527.16C866.83 172.84 630.3 36.29 401.1 97.74z" p-id="2231" data-spm-anchor-id="a313x.7781069.0.i3" class="" fill="#ffffff"></path><path d="M274.58 587.77l23.54 87.82c3.21 12 10.72 16.58 22.71 13.36l149.87-40.16c6.44-1.72 11.53-4.97 14.69-9.58 3.86-6.68 2.35-26.36-4.81-58.95l22.21 0.95c6.8 37.08 7.91 59.99 3.52 69.33-4.79 7.87-12.71 13.45-24.26 17.17L320.47 711c-22.25 5.96-36.22-2.84-42.34-25.67L236.8 531.07l21.08-5.64 11.29 42.15 160.11-42.91-20.47-76.41-197 52.79-5.49-20.49 218.37-58.51 31.38 117.09-181.49 48.63zM555.62 373.17c26.11 17.79 52.01 37.19 77.73 58.23l-10.05 18.69c-26.72-23.59-49.51-41.94-68.12-55.16-8.68 34.33-20.71 66.73-36.08 97.2l-16.55-13.76c15.52-29.89 27.83-63.61 37.26-100.96l15.81-4.24z m79.94 115.68l4.71 17.56c-5.45 30.01-13.44 57.56-24.19 83.03 14.32 7.77 27.76 15.78 40.03 24.1l-11.23 19c-23.44-17.24-53.72-34.24-91.12-50.87l10.45-17.23c12.06 5.23 23.54 10.63 34.74 16.1 7.69-19.32 14.01-41.41 19.33-66.05l-82.26 22.04-5.25-19.61 104.79-28.07z m-30.94-12.42l-12.32 14.91c-11.08-12.09-25.19-24.94-42.04-38.62l12.71-13.45c17.52 13.82 31.18 26.17 41.65 37.16z m144.43-144.74l5.34 19.9-58.25 15.61c1.52 11.52 2.59 22.53 3.07 33.69l54.74-14.67 37.02 138.16-20.49 5.49-31.84-118.84-75.81 20.31 32.47 121.18-20.78 5.57-37.65-140.5 41.86-11.21c-0.49-11.17-1.55-22.17-3.36-33.62l-59.72 15.99-5.34-19.9 138.74-37.16z m-33.63 106.27l13.48 50.34c7.81 31.47 8.41 58.29 2.01 80.09-6.49 20.25-20.96 38.87-43.46 55.58l-15.91-14.88c21.28-15.43 34.67-32.19 39.96-49.93 4.55-18.15 3.74-39.9-2.5-65.52l-13.49-50.34 19.91-5.34zM818.68 572.8l-10.93 18.93c-16.4-13.18-37.78-26.27-63.8-39.06l10.66-17.61c24.46 11.66 45.77 24.44 64.07 37.74z" p-id="2232" data-spm-anchor-id="a313x.7781069.0.i2" class="" fill="#ffffff"></path></svg>